<?xml version="1.0" encoding="UTF-8"?>
<svg xmlns="http://www.w3.org/2000/svg" viewBox="0 0 920 520" width="920" height="520">
  <defs>
    <marker id="arrow" markerWidth="10" markerHeight="10" refX="9" refY="3" orient="auto">
      <path d="M0,0 L9,3 L0,6 Z" fill="#475569"/>
    </marker>
    <linearGradient id="clientGrad" x1="0%" y1="0%" x2="0%" y2="100%">
      <stop offset="0%" style="stop-color:#eef2ff"/>
      <stop offset="100%" style="stop-color:#e0e7ff"/>
    </linearGradient>
    <linearGradient id="appGrad" x1="0%" y1="0%" x2="0%" y2="100%">
      <stop offset="0%" style="stop-color:#f5f3ff"/>
      <stop offset="100%" style="stop-color:#ede9fe"/>
    </linearGradient>
    <linearGradient id="serverGrad" x1="0%" y1="0%" x2="0%" y2="100%">
      <stop offset="0%" style="stop-color:#ecfdf5"/>
      <stop offset="100%" style="stop-color:#d1fae5"/>
    </linearGradient>
    <linearGradient id="dbGrad" x1="0%" y1="0%" x2="0%" y2="100%">
      <stop offset="0%" style="stop-color:#fff7ed"/>
      <stop offset="100%" style="stop-color:#ffedd5"/>
    </linearGradient>
  </defs>

  <!-- Title (optional in Word caption) -->
  <text x="460" y="28" text-anchor="middle" font-family="Segoe UI, Arial, sans-serif" font-size="15" font-weight="700" fill="#1e293b">
    @EVB5:BC@0 V=D>@<0FV9=>W A8AB5<8 «ShopFlow»
  </text>

  <!-- Clients -->
  <rect x="40" y="55" width="840" height="72" rx="8" fill="#f8fafc" stroke="#cbd5e1" stroke-width="1.5"/>
  <text x="60" y="78" font-family="Segoe UI, Arial, sans-serif" font-size="12" font-weight="700" fill="#64748b"> , !"## (")</text>

  <rect x="120" y="88" width="200" height="28" rx="6" fill="url(#clientGrad)" stroke="#818cf8" stroke-width="1.2"/>
  <text x="220" y="106" text-anchor="middle" font-family="Segoe UI, Arial, sans-serif" font-size="11" fill="#3730a3">51-1@0C75@</text>

  <rect x="380" y="88" width="200" height="28" rx="6" fill="url(#clientGrad)" stroke="#818cf8" stroke-width="1.2"/>
  <text x="480" y="106" text-anchor="middle" font-family="Segoe UI, Arial, sans-serif" font-size="11" fill="#3730a3">>1V;L=89 :;VT=B (PWA)</text>

  <rect x="640" y="88" width="200" height="28" rx="6" fill="url(#clientGrad)" stroke="#818cf8" stroke-width="1.2"/>
  <text x="740" y="106" text-anchor="middle" font-family="Segoe UI, Arial, sans-serif" font-size="11" fill="#3730a3">4<V=VAB@0B>@ (251)</text>

  <!-- Main app box -->
  <rect x="40" y="155" width="840" height="200" rx="10" fill="url(#appGrad)" stroke="#8b5cf6" stroke-width="2"/>
  <text x="60" y="178" font-family="Segoe UI, Arial, sans-serif" font-size="12" font-weight="700" fill="#6d28d9">NEXT.JS  $ & !!" «ShopFlow»</text>

  <!-- Store -->
  <rect x="60" y="195" width="380" height="145" rx="8" fill="#ffffff" stroke="#c4b5fd" stroke-width="1.5"/>
  <text x="250" y="218" text-anchor="middle" font-family="Segoe UI, Arial, sans-serif" font-size="11" font-weight="700" fill="#5b21b6">;VT=BAL:0 2VB@8=0</text>
  <rect x="80" y="230" width="95" height="26" rx="4" fill="#f5f3ff" stroke="#ddd6fe"/>
  <text x="127" y="247" text-anchor="middle" font-size="9" font-family="Segoe UI, Arial" fill="#4c1d95">0B0;>3</text>
  <rect x="185" y="230" width="95" height="26" rx="4" fill="#f5f3ff" stroke="#ddd6fe"/>
  <text x="232" y="247" text-anchor="middle" font-size="9" font-family="Segoe UI, Arial" fill="#4c1d95">>H8:</text>
  <rect x="290" y="230" width="130" height="26" rx="4" fill="#f5f3ff" stroke="#ddd6fe"/>
  <text x="355" y="247" text-anchor="middle" font-size="9" font-family="Segoe UI, Arial" fill="#4c1d95">D>@<;5==O</text>
  <rect x="80" y="268" width="160" height="26" rx="4" fill="#f5f3ff" stroke="#ddd6fe"/>
  <text x="160" y="285" text-anchor="middle" font-size="9" font-family="Segoe UI, Arial" fill="#4c1d95">A>18AB89 :01V=5B</text>
  <rect x="255" y="268" width="165" height="26" rx="4" fill="#f5f3ff" stroke="#ddd6fe"/>
  <text x="337" y="285" text-anchor="middle" font-size="9" font-family="Segoe UI, Arial" fill="#4c1d95">React + Zustand</text>
  <text x="250" y="322" text-anchor="middle" font-size="8" font-family="Segoe UI, Arial" fill="#7c3aed">Tailwind CSS · 40?B82=89 UI</text>

  <!-- Admin -->
  <rect x="470" y="195" width="390" height="145" rx="8" fill="#ffffff" stroke="#c4b5fd" stroke-width="1.5"/>
  <text x="665" y="218" text-anchor="middle" font-family="Segoe UI, Arial, sans-serif" font-size="11" font-weight="700" fill="#5b21b6">4<V=VAB@0B82=0 ?0=5;L</text>
  <rect x="490" y="230" width="72" height="26" rx="4" fill="#f5f3ff" stroke="#ddd6fe"/>
  <text x="526" y="247" text-anchor="middle" font-size="8" font-family="Segoe UI, Arial" fill="#4c1d95">0H1>@4</text>
  <rect x="572" y="230" width="72" height="26" rx="4" fill="#f5f3ff" stroke="#ddd6fe"/>
  <text x="608" y="247" text-anchor="middle" font-size="8" font-family="Segoe UI, Arial" fill="#4c1d95">">20@8</text>
  <rect x="654" y="230" width="88" height="26" rx="4" fill="#f5f3ff" stroke="#ddd6fe"/>
  <text x="698" y="247" text-anchor="middle" font-size="8" font-family="Segoe UI, Arial" fill="#4c1d95">0<>2;5==O</text>
  <rect x="752" y="230" width="88" height="26" rx="4" fill="#f5f3ff" stroke="#ddd6fe"/>
  <text x="796" y="247" text-anchor="middle" font-size="8" font-family="Segoe UI, Arial" fill="#4c1d95">>@8ABC20GV</text>
  <rect x="490" y="268" width="170" height="30" rx="4" fill="#ede9fe" stroke="#a78bfa" stroke-width="1.2"/>
  <text x="575" y="287" text-anchor="middle" font-size="9" font-family="Segoe UI, Arial" font-weight="600" fill="#5b21b6">=0;VB8:0 ?@>406V2</text>
  <text x="575" y="300" text-anchor="middle" font-size="7" font-family="Segoe UI, Arial" fill="#7c3aed">Recharts · 28@CG:0 · AB0BCA8</text>
  <rect x="680" y="268" width="160" height="26" rx="4" fill="#f5f3ff" stroke="#ddd6fe"/>
  <text x="760" y="285" text-anchor="middle" font-size="8" font-family="Segoe UI, Arial" fill="#4c1d95">0;0HBC20==O</text>

  <!-- Server Actions -->
  <rect x="200" y="385" width="520" height="48" rx="8" fill="url(#serverGrad)" stroke="#34d399" stroke-width="1.5"/>
  <text x="460" y="408" text-anchor="middle" font-family="Segoe UI, Arial, sans-serif" font-size="12" font-weight="700" fill="#047857">Server Actions (1V7=5A-;>3V:0)</text>
  <text x="460" y="424" text-anchor="middle" font-family="Segoe UI, Arial, sans-serif" font-size="9" fill="#065f46">B>20@8 · 70<>2;5==O · :>@8ABC20GV · 0=0;VB8:0 · bcrypt</text>

  <!-- MongoDB -->
  <rect x="330" y="455" width="260" height="48" rx="24" fill="url(#dbGrad)" stroke="#f97316" stroke-width="1.5"/>
  <text x="460" y="478" text-anchor="middle" font-family="Segoe UI, Arial, sans-serif" font-size="12" font-weight="700" fill="#c2410c">MongoDB + Mongoose</text>
  <text x="460" y="494" text-anchor="middle" font-family="Segoe UI, Arial, sans-serif" font-size="9" fill="#9a3412">Product · Order · User</text>

  <!-- Telegram side -->
  <rect x="760" y="385" width="120" height="48" rx="6" fill="#f0f9ff" stroke="#7dd3fc" stroke-width="1.2"/>
  <text x="820" y="408" text-anchor="middle" font-size="9" font-family="Segoe UI, Arial" font-weight="600" fill="#0369a1">Telegram</text>
  <text x="820" y="422" text-anchor="middle" font-size="8" font-family="Segoe UI, Arial" fill="#0284c7">A?>2VI5==O</text>

  <!-- Arrows clients to app -->
  <line x1="220" y1="116" x2="220" y2="155" stroke="#475569" stroke-width="1.5" marker-end="url(#arrow)"/>
  <line x1="480" y1="116" x2="250" y2="155" stroke="#475569" stroke-width="1.5" marker-end="url(#arrow)"/>
  <line x1="740" y1="116" x2="665" y2="155" stroke="#475569" stroke-width="1.5" marker-end="url(#arrow)"/>

  <!-- App to server -->
  <line x1="460" y1="355" x2="460" y2="385" stroke="#475569" stroke-width="1.5" marker-end="url(#arrow)"/>

  <!-- Server to DB -->
  <line x1="460" y1="433" x2="460" y2="455" stroke="#475569" stroke-width="1.5" marker-end="url(#arrow)"/>

  <!-- Server to Telegram -->
  <line x1="720" y1="409" x2="760" y2="409" stroke="#475569" stroke-width="1.2" marker-end="url(#arrow)"/>
</svg>
